<?xml version="1.0" encoding="utf-8"?>
<svg xmlns="http://www.w3.org/2000/svg" viewBox="227.3497 241.0667 313.1397 129.0341" width="417.5196px" height="172.04546815347936px">
    <path style=" stroke:none;fill-rule:nonzero;fill:#000000;fill-opacity:1;" d="M 434.515625 242.117188 C 439.902344 239.960938 445.855469 241.441406 450.949219 243.703125 C 456.632812 246.386719 462.441406 250.285156 464.773438 256.40625 C 465.820312 258.902344 465.132812 261.816406 463.335938 263.773438 C 461.921875 264.988281 459.910156 264.648438 458.214844 264.476562 C 454.367188 263.648438 452.011719 260.214844 449.023438 257.964844 C 446.433594 255.679688 443.675781 253.199219 440.167969 252.566406 C 437.039062 252.050781 434.320312 254.125 432.316406 256.28125 C 429.296875 260.015625 427.390625 264.503906 425.902344 269.039062 C 424.9375 272.992188 422.882812 276.761719 423.128906 280.933594 C 422.835938 277.085938 421.742188 273.339844 421.636719 269.472656 C 421.441406 264.488281 422.070312 259.472656 423.320312 254.652344 C 425.609375 249.488281 429.144531 244.375 434.515625 242.117188 Z M 434.515625 242.117188 " transform="matrix(1, 0, 0, 1, 0, 7.105427357601002e-15)"/>
    <path style=" stroke:none;fill-rule:nonzero;fill:#000000;fill-opacity:1;" d="M 483.617188 245.421875 C 487.515625 244.96875 491.617188 246.503906 494.230469 249.449219 C 496.007812 251.640625 497.199219 254.402344 497.179688 257.253906 C 496.835938 260.722656 495.097656 264.152344 492.191406 266.144531 C 488.769531 268.578125 484.09375 269.085938 480.242188 267.398438 C 474.519531 265.21875 471.1875 257.828125 474.128906 252.246094 C 475.785156 248.449219 479.597656 245.980469 483.617188 245.421875 Z M 483.617188 245.421875 " transform="matrix(1, 0, 0, 1, 0, 7.105427357601002e-15)"/>
    <path style=" stroke:none;fill-rule:nonzero;fill:#000000;fill-opacity:1;" d="M 524.207031 265.585938 C 524.4375 265.574219 524.671875 265.566406 524.90625 265.574219 C 524.808594 267.628906 525.34375 269.6875 525.003906 271.734375 C 524.460938 275.257812 523.046875 278.566406 521.515625 281.757812 C 518.152344 289.289062 511.789062 295.507812 504.074219 298.433594 C 500.53125 299.6875 496.332031 299.589844 493.140625 297.453125 C 487.980469 294.070312 483.917969 288.914062 482.144531 282.960938 C 481.019531 279.75 480.980469 275.886719 482.914062 272.972656 C 483.878906 271.699219 485.183594 270.273438 486.929688 270.367188 C 488.734375 270.535156 490.347656 271.621094 491.4375 273.039062 C 494 276.417969 494.539062 280.808594 496.652344 284.414062 C 498.421875 286.742188 501.28125 289.503906 504.441406 288.144531 C 508.253906 286.527344 511.460938 283.777344 514.558594 281.082031 C 518.476562 277.703125 521.203125 273.1875 523.378906 268.542969 C 523.816406 267.609375 524.121094 266.617188 524.207031 265.585938 Z M 524.207031 265.585938 " transform="matrix(1, 0, 0, 1, 0, 7.105427357601002e-15)"/>
    <path style=" stroke:none;fill-rule:nonzero;fill:#000000;fill-opacity:1;" d="M 429.011719 287.183594 C 431.277344 285.257812 434.625 285.445312 437.261719 286.40625 C 439.910156 287.539062 442.699219 288.410156 445.117188 290.015625 C 448.871094 292.429688 452.457031 295.136719 455.667969 298.246094 C 459.292969 301.1875 462.660156 304.46875 465.546875 308.148438 C 467.675781 310.660156 469.898438 313.597656 469.730469 317.078125 C 468.160156 322.148438 463.828125 325.859375 459.320312 328.339844 C 453.347656 331.386719 446.679688 332.597656 440.292969 334.46875 C 437.53125 335.363281 434.632812 335.6875 431.761719 336 C 428.507812 336.175781 425.238281 336.847656 421.988281 336.269531 C 424.070312 334.75 426.59375 334.078125 428.882812 332.953125 C 435.453125 330.105469 441.640625 326.453125 448.046875 323.253906 C 450.761719 321.9375 453.417969 320.257812 454.96875 317.574219 C 454.886719 316.984375 454.804688 316.398438 454.726562 315.808594 C 452.902344 313.957031 450.652344 312.632812 448.332031 311.511719 C 445.625 313.757812 442.503906 315.464844 440.007812 317.972656 C 433.167969 323.082031 425.601562 327.089844 418.3125 331.511719 C 408.5 337.042969 399.21875 343.492188 389.222656 348.699219 C 388.640625 348.90625 388.042969 349.070312 387.433594 349.1875 C 391.269531 344.992188 395.742188 341.417969 399.523438 337.164062 C 404.976562 331.429688 410.433594 325.695312 416.125 320.195312 C 422.132812 314.390625 427.976562 308.414062 433.546875 302.179688 C 431.199219 300 428.164062 297.992188 427.449219 294.648438 C 426.769531 292.121094 427.171875 289.136719 429.011719 287.183594 Z M 429.011719 287.183594 " transform="matrix(1, 0, 0, 1, 0, 7.105427357601002e-15)"/>
    <path style="stroke: none; fill-rule: nonzero; fill-opacity: 1; fill: rgb(246, 151, 42);" d="M 466.214844 257.128906 C 470.628906 255.160156 475.511719 256.511719 479.6875 258.578125 C 484.347656 261.023438 489.105469 264.585938 491.019531 270.171875 C 491.875 272.453125 491.3125 275.117188 489.839844 276.902344 C 488.679688 278.007812 487.03125 277.699219 485.640625 277.542969 C 482.488281 276.789062 480.558594 273.652344 478.105469 271.601562 C 475.984375 269.511719 473.722656 267.25 470.847656 266.671875 C 468.28125 266.195312 466.050781 268.09375 464.40625 270.0625 C 461.933594 273.472656 460.371094 277.570312 459.152344 281.707031 C 458.359375 285.316406 456.675781 288.761719 456.878906 292.570312 C 456.636719 289.058594 455.742188 285.636719 455.65625 282.105469 C 455.492188 277.554688 456.011719 272.976562 457.035156 268.574219 C 458.910156 263.859375 461.808594 259.1875 466.214844 257.128906 Z M 466.214844 257.128906 " transform="matrix(1, 0, 0, 1, 0, 7.105427357601002e-15)"/>
    <path style="stroke: none; fill-rule: nonzero; fill-opacity: 1; fill: rgb(246, 151, 42);" d="M 506.46875 260.148438 C 509.664062 259.734375 513.027344 261.132812 515.171875 263.824219 C 516.625 265.824219 517.601562 268.347656 517.585938 270.949219 C 517.304688 274.117188 515.878906 277.246094 513.5 279.066406 C 510.695312 281.289062 506.859375 281.753906 503.703125 280.210938 C 499.011719 278.222656 496.28125 271.472656 498.691406 266.378906 C 500.046875 262.910156 503.175781 260.65625 506.46875 260.148438 Z M 506.46875 260.148438 " transform="matrix(1, 0, 0, 1, 0, 7.105427357601002e-15)"/>
    <path style="stroke: none; fill-rule: nonzero; fill-opacity: 1; fill: rgb(246, 151, 42);" d="M 539.742188 278.558594 C 539.933594 278.546875 540.121094 278.539062 540.316406 278.542969 C 540.234375 280.421875 540.675781 282.300781 540.394531 284.171875 C 539.953125 287.386719 538.792969 290.410156 537.539062 293.320312 C 534.777344 300.199219 529.5625 305.875 523.238281 308.546875 C 520.335938 309.691406 516.890625 309.605469 514.273438 307.652344 C 510.042969 304.5625 506.714844 299.855469 505.257812 294.421875 C 504.339844 291.488281 504.304688 287.960938 505.890625 285.300781 C 506.683594 284.136719 507.753906 282.835938 509.183594 282.921875 C 510.660156 283.074219 511.984375 284.066406 512.875 285.359375 C 514.980469 288.445312 515.417969 292.453125 517.152344 295.746094 C 518.601562 297.871094 520.945312 300.394531 523.539062 299.152344 C 526.664062 297.675781 529.292969 295.164062 531.832031 292.703125 C 535.042969 289.617188 537.277344 285.496094 539.0625 281.257812 C 539.421875 280.40625 539.671875 279.496094 539.742188 278.558594 Z M 539.742188 278.558594 " transform="matrix(1, 0, 0, 1, 0, 7.105427357601002e-15)"/>
    <path style="stroke: none; fill-rule: nonzero; fill-opacity: 1; fill: rgb(246, 151, 42);" d="M 461.699219 298.277344 C 463.558594 296.519531 466.300781 296.6875 468.464844 297.566406 C 470.632812 298.597656 472.921875 299.394531 474.902344 300.863281 C 477.980469 303.066406 480.921875 305.539062 483.554688 308.375 C 486.527344 311.0625 489.285156 314.058594 491.652344 317.417969 C 493.398438 319.710938 495.222656 322.394531 495.082031 325.570312 C 493.792969 330.203125 490.242188 333.585938 486.550781 335.851562 C 481.648438 338.636719 476.183594 339.742188 470.949219 341.449219 C 468.683594 342.265625 466.308594 342.5625 463.953125 342.847656 C 461.285156 343.007812 458.605469 343.621094 455.941406 343.09375 C 457.648438 341.707031 459.714844 341.089844 461.59375 340.0625 C 466.980469 337.464844 472.054688 334.132812 477.304688 331.210938 C 479.527344 330.007812 481.707031 328.472656 482.980469 326.023438 C 482.910156 325.484375 482.84375 324.949219 482.78125 324.414062 C 481.285156 322.722656 479.441406 321.511719 477.539062 320.488281 C 475.320312 322.539062 472.761719 324.097656 470.714844 326.386719 C 465.105469 331.054688 458.902344 334.710938 452.929688 338.75 C 444.886719 343.800781 437.277344 349.6875 429.078125 354.441406 C 428.601562 354.632812 428.113281 354.78125 427.613281 354.886719 C 430.757812 351.054688 434.425781 347.792969 437.523438 343.910156 C 441.996094 338.675781 446.46875 333.4375 451.132812 328.417969 C 456.0625 323.117188 460.851562 317.660156 465.417969 311.964844 C 463.492188 309.976562 461.003906 308.144531 460.417969 305.09375 C 459.863281 302.785156 460.191406 300.058594 461.699219 298.277344 Z M 461.699219 298.277344 " transform="matrix(1, 0, 0, 1, 0, 7.105427357601002e-15)"/>
    <path style=" stroke:none;fill-rule:nonzero;fill:#000000;fill-opacity:1;" d="M 527.59375 339.378906 C 526.914062 339.320312 526.214844 339.484375 525.601562 339.890625 C 505.582031 353.128906 482.050781 359.34375 455.007812 358.527344 L 454.953125 358.527344 C 450.742188 358.476562 446.261719 358.25 441.511719 357.847656 C 433.773438 357.191406 425.320312 356.0625 416.144531 354.464844 C 416.089844 354.457031 416.035156 354.449219 415.980469 354.441406 C 410.894531 353.832031 393.492188 349.867188 363.773438 342.546875 L 363.695312 342.53125 C 356.285156 340.902344 348.746094 339.574219 341.082031 338.546875 C 337.613281 338.066406 334.191406 337.6875 330.824219 337.398438 C 320.652344 336.535156 310.945312 336.546875 301.699219 337.4375 C 273.738281 339.6875 249.371094 348.679688 228.601562 364.417969 C 227.214844 365.46875 226.9375 367.453125 227.984375 368.84375 C 228.542969 369.589844 229.367188 370.015625 230.226562 370.089844 C 230.972656 370.152344 231.742188 369.949219 232.386719 369.460938 C 252.191406 354.453125 275.480469 345.875 302.242188 343.730469 L 302.292969 343.726562 C 311.160156 342.875 320.492188 342.863281 330.285156 343.695312 C 333.546875 343.972656 336.859375 344.34375 340.222656 344.804688 L 340.234375 344.808594 C 347.730469 345.8125 355.101562 347.109375 362.347656 348.703125 L 362.34375 348.703125 C 392.144531 356.039062 409.753906 360.042969 415.167969 360.707031 L 415.15625 360.707031 C 424.472656 362.328125 433.082031 363.472656 440.980469 364.144531 C 445.867188 364.558594 450.480469 364.792969 454.824219 364.84375 L 454.816406 364.84375 C 483.183594 365.695312 507.929688 359.136719 529.054688 345.167969 C 530.503906 344.207031 530.910156 342.246094 529.953125 340.789062 C 529.402344 339.949219 528.519531 339.457031 527.59375 339.378906 Z M 527.59375 339.378906 " transform="matrix(1, 0, 0, 1, 0, 7.105427357601002e-15)"/>
</svg>
