<svg
    xmlns="http://www.w3.org/2000/svg"
    viewBox="24 119 952 857"
    preserveAspectRatio="xMidYMid meet"
    role="img"
    aria-label="Coureur qui court en cercle"
    class="absolute inset-0 w-full h-full overflow-visible z-0 scale-150"
    width="100"
    height="100"
>
    <title>Coureur qui court en cercle</title>

    <defs>
        <!-- Dégradé radial ease-out -->
        <radialGradient id="trackGradient" cx="50%" cy="50%" r="80%">
            <!-- centre très blanc -->
            <stop offset="0%" stop-color="white" />
            <!-- rester blanc jusqu’à ~40% -->
            <stop offset="40%" stop-color="white" />
            <!-- transition douce vers le noir -->
            <stop offset="100%" stop-color="black" />
        </radialGradient>
    </defs>

    <!-- Piste -->
    <path
        id="trackPathP"
        class="track"
        fill="url(#trackGradient)"
        d="M160.0 975.0 L174.0 934.0 L176.0 858.0 L171.0 823.0 L142.0 751.0 L116.0 714.0 L67.0 695.0 L44.0 650.0 L26.0 508.0 L57.0 487.0 L100.0 484.0 L128.0 460.0 L139.0 418.0 L138.0 379.0 L153.0 347.0 L181.0 312.0 L195.0 279.0 L259.0 237.0 L532.0 129.0 L581.0 132.0 L644.0 154.0 L720.0 166.0 L757.0 176.0 L793.0 195.0 L847.0 255.0 L882.0 278.0 L917.0 294.0 L953.0 302.0 L971.0 333.0 L943.0 403.0 L934.0 439.0 L904.0 460.0 L854.0 515.0 L836.0 548.0 L812.0 575.0 L772.0 588.0 L775.0 643.0 L768.0 684.0 L708.0 844.0 L705.0 885.0 L708.0 955.0 L555.0 968.0 L322.0 969.0 Z"
    />
</svg>
