<svg
    xmlns="http://www.w3.org/2000/svg"
    xmlns:xlink="http://www.w3.org/1999/xlink"
    width="1080" height="1080"
    viewBox="0 0 810 809.999993"
    preserveAspectRatio="xMidYMid meet"
    version="1.2">

    <defs>
        <clipPath id="9699e20bbb">
            <path d="M 480 264 L 525.335938 264 L 525.335938 300 L 480 300 Z M 480 264 "/>
        </clipPath>
        <clipPath id="357d140291">
            <path d="M 481 265 L 525.335938 265 L 525.335938 300 L 481 300 Z M 481 265 "/>
        </clipPath>
        <clipPath id="dc243eb8ca">
            <path d="M 387.335938 284 L 471 284 L 471 349.308594 L 387.335938 349.308594 Z M 387.335938 284 "/>
        </clipPath>
        <clipPath id="ceddea1c0c">
            <path d="M 387.335938 285 L 470 285 L 470 349.308594 L 387.335938 349.308594 Z M 387.335938 285 "/>
        </clipPath>
        <clipPath id="43c111f2ff">
            <path d="M 455 255.144531 L 492 255.144531 L 492 293 L 455 293 Z M 455 255.144531 "/>
        </clipPath>
        <clipPath id="10b285edfa">
            <path d="M 504 278 L 540.738281 278 L 540.738281 310 L 504 310 Z M 504 278 "/>
        </clipPath>
        <clipPath id="b57b2984af">
            <path d="M 427.488281 296 L 496 296 L 496 354.894531 L 427.488281 354.894531 Z M 427.488281 296 "/>
        </clipPath>
        <clipPath id="25c4ee63d8">
            <path d="M 227 336 L 531 336 L 531 371 L 227 371 Z M 227 336 "/>
        </clipPath>
        <clipPath id="5b2b496dd8">
            <path d="M 221.125 303.863281 L 540.972656 331.035156 L 534.625 405.765625 L 214.777344 378.59375 Z M 221.125 303.863281 "/>
        </clipPath>
        <clipPath id="5f73c7bc94">
            <path d="M 221.125 303.863281 L 540.972656 331.035156 L 534.625 405.765625 L 214.777344 378.59375 Z M 221.125 303.863281 "/>
        </clipPath>
        <clipPath id="c82667c838">
            <path d="M 221.125 303.863281 L 540.972656 331.035156 L 534.625 405.765625 L 214.777344 378.59375 Z M 221.125 303.863281 "/>
        </clipPath>
        <clipPath id="71b5bee86e">
            <path d="M 524 330 L 541 330 L 541 347 L 524 347 Z M 524 330 "/>
        </clipPath>
        <clipPath id="a5f68f00ef">
            <path d="M 221.125 303.863281 L 540.972656 331.035156 L 534.625 405.765625 L 214.777344 378.59375 Z M 221.125 303.863281 "/>
        </clipPath>
        <clipPath id="df51084f9c">
            <path d="M 221.125 303.863281 L 540.972656 331.035156 L 534.625 405.765625 L 214.777344 378.59375 Z M 221.125 303.863281 "/>
        </clipPath>
        <clipPath id="e33160c80b">
            <path d="M 221.125 303.863281 L 540.972656 331.035156 L 534.625 405.765625 L 214.777344 378.59375 Z M 221.125 303.863281 "/>
        </clipPath>
        <clipPath id="65f133249a">
            <path d="M 215 363 L 235 363 L 235 379 L 215 379 Z M 215 363 "/>
        </clipPath>
        <clipPath id="ed73342010">
            <path d="M 221.125 303.863281 L 540.972656 331.035156 L 534.625 405.765625 L 214.777344 378.59375 Z M 221.125 303.863281 "/>
        </clipPath>
        <clipPath id="cda9309fa4">
            <path d="M 221.125 303.863281 L 540.972656 331.035156 L 534.625 405.765625 L 214.777344 378.59375 Z M 221.125 303.863281 "/>
        </clipPath>
        <clipPath id="f903f741d6">
            <path d="M 221.125 303.863281 L 540.972656 331.035156 L 534.625 405.765625 L 214.777344 378.59375 Z M 221.125 303.863281 "/>
        </clipPath>
        <clipPath id="31afd1add6">
            <rect x="0" y="0" width="526" height="181"/>
        </clipPath>
        <clipPath id="1e82c47499">
            <rect x="0" y="0" width="340" height="54"/>
        </clipPath>
    </defs>

    <g id="7abd19259d">
        <!-- ✅ contenu recadré : les deux <rect> blancs ont été supprimés -->
        <g transform="translate(-260,-140) scale(2)">

            <path style="fill:none;stroke-width:0.1;stroke-linecap:butt;stroke-linejoin:miter;stroke:#000000;stroke-opacity:1;stroke-miterlimit:10;"
                  d="M 108.418846 50.724426 C 118.53651 46.687731 129.718032 49.459302 139.285424 53.693443 C 149.960696 58.717373 160.870751 66.015599 165.250914 77.474838 C 167.217219 82.14775 165.925914 87.603137 162.550914 91.266876 C 159.894936 93.541173 156.116403 92.904955 152.932164 92.58319 C 145.705261 91.032865 141.281076 84.604868 135.668304 80.392665 C 130.803902 76.114647 125.62401 71.470986 119.035423 70.286304 C 113.15852 69.321008 108.051998 73.204132 104.28814 77.240826 C 98.616672 84.231913 95.036237 92.634379 92.240856 101.1246 C 90.428628 108.525207 86.569389 115.582109 87.031617 123.392234 C 86.481345 116.189075 84.426997 109.17605 84.2289 101.936327 C 83.862052 92.605128 85.043302 83.215426 87.391128 74.191367 C 91.690585 64.523777 98.330531 54.951254 108.418846 50.724426 Z M 108.418846 50.724426 "
                  transform="matrix(0.532407,0,0,0.534162,376.792631,215.02211)"/>
            <path style=" stroke:none;fill-rule:nonzero;fill:#000000;fill-opacity:1;"
                  d="M 434.515625 242.117188 C 439.902344 239.960938 445.855469 241.441406 450.949219 243.703125 C 456.632812 246.386719 462.441406 250.285156 464.773438 256.40625 C 465.820312 258.902344 465.132812 261.816406 463.335938 263.773438 C 461.921875 264.988281 459.910156 264.648438 458.214844 264.476562 C 454.367188 263.648438 452.011719 260.214844 449.023438 257.964844 C 446.433594 255.679688 443.675781 253.199219 440.167969 252.566406 C 437.039062 252.050781 434.320312 254.125 432.316406 256.28125 C 429.296875 260.015625 427.390625 264.503906 425.902344 269.039062 C 424.9375 272.992188 422.882812 276.761719 423.128906 280.933594 C 422.835938 277.085938 421.742188 273.339844 421.636719 269.472656 C 421.441406 264.488281 422.070312 259.472656 423.320312 254.652344 C 425.609375 249.488281 429.144531 244.375 434.515625 242.117188 Z M 434.515625 242.117188 "/>
            <path style="fill:none;stroke-width:0.1;stroke-linecap:butt;stroke-linejoin:miter;stroke:#000000;stroke-opacity:1;stroke-miterlimit:10;"
                  d="M 200.644394 56.911098 C 207.966677 56.062807 215.670482 58.936758 220.578906 64.450648 C 223.917222 68.553158 226.154993 73.723345 226.118309 79.061726 C 225.472656 85.555539 222.207711 91.976223 216.749015 95.705777 C 210.32184 100.261684 201.539503 101.212355 194.305264 98.053203 C 183.556622 93.972631 177.298198 80.136716 182.822926 69.68665 C 185.933796 62.578558 193.094666 57.956836 200.644394 56.911098 Z M 200.644394 56.911098 "
                  transform="matrix(0.532407,0,0,0.534162,376.792631,215.02211)"/>
            <path style=" stroke:none;fill-rule:nonzero;fill:#000000;fill-opacity:1;"
                  d="M 483.617188 245.421875 C 487.515625 244.96875 491.617188 246.503906 494.230469 249.449219 C 496.007812 251.640625 497.199219 254.402344 497.179688 257.253906 C 496.835938 260.722656 495.097656 264.152344 492.191406 266.144531 C 488.769531 268.578125 484.09375 269.085938 480.242188 267.398438 C 474.519531 265.21875 471.1875 257.828125 474.128906 252.246094 C 475.785156 248.449219 479.597656 245.980469 483.617188 245.421875 Z M 483.617188 245.421875 "/>
            <g clip-rule="nonzero" clip-path="url(#9699e20bbb)">
                <path style="fill:none;stroke-width:0.1;stroke-linecap:butt;stroke-linejoin:miter;stroke:#000000;stroke-opacity:1;stroke-miterlimit:10;"
                      d="M 276.882713 94.660039 C 277.315594 94.638101 277.755811 94.623475 278.196029 94.638101 C 278.012605 98.484661 279.017768 102.338534 278.379453 106.170468 C 277.359616 112.766661 274.703637 118.960646 271.82755 124.935246 C 265.51043 139.034424 253.558527 150.676485 239.068038 156.153811 C 232.413418 158.501236 224.526189 158.318415 218.531895 154.318285 C 208.839775 147.985355 201.20934 138.332391 197.878362 127.187604 C 195.765318 121.17644 195.691948 113.94403 199.323742 108.488642 C 201.13597 106.104653 203.586514 103.435462 206.866134 103.61097 C 210.255808 103.925423 213.285971 105.958396 215.332982 108.612961 C 220.146026 114.938578 221.158526 123.158223 225.127819 129.907985 C 228.451461 134.266445 233.822113 139.436631 239.757712 136.891759 C 246.918581 133.864238 252.942223 128.71599 258.76043 123.670123 C 266.119398 117.344506 271.240593 108.890849 275.327278 100.195868 C 276.149018 98.448097 276.7213 96.590632 276.882713 94.660039 Z M 276.882713 94.660039 "
                      transform="matrix(0.532407,0,0,0.534162,376.792631,215.02211)"/>
            </g>
            <g clip-rule="nonzero" clip-path="url(#357d140291)">
                <path style=" stroke:none;fill-rule:nonzero;fill:#000000;fill-opacity:1;"
                      d="M 524.207031 265.585938 C 524.4375 265.574219 524.671875 265.566406 524.90625 265.574219 C 524.808594 267.628906 525.34375 269.6875 525.003906 271.734375 C 524.460938 275.257812 523.046875 278.566406 521.515625 281.757812 C 518.152344 289.289062 511.789062 295.507812 504.074219 298.433594 C 500.53125 299.6875 496.332031 299.589844 493.140625 297.453125 C 487.980469 294.070312 483.917969 288.914062 482.144531 282.960938 C 481.019531 279.75 480.980469 275.886719 482.914062 272.972656 C 483.878906 271.699219 485.183594 270.273438 486.929688 270.367188 C 488.734375 270.535156 490.347656 271.621094 491.4375 273.039062 C 494 276.417969 494.539062 280.808594 496.652344 284.414062 C 498.421875 286.742188 501.28125 289.503906 504.441406 288.144531 C 508.253906 286.527344 511.460938 283.777344 514.558594 281.082031 C 518.476562 277.703125 521.203125 273.1875 523.378906 268.542969 C 523.816406 267.609375 524.121094 266.617188 524.207031 265.585938 Z M 524.207031 265.585938 "/>
            </g>
            <g clip-rule="nonzero" clip-path="url(#dc243eb8ca)">
                <path style="fill:none;stroke-width:0.1;stroke-linecap:butt;stroke-linejoin:miter;stroke:#000000;stroke-opacity:1;stroke-miterlimit:10;"
                      d="M 98.081074 135.092797 C 102.336509 131.487561 108.624281 131.838578 113.576727 133.63754 C 118.551184 135.758267 123.789771 137.389033 128.331347 140.394615 C 135.382163 144.913957 142.117489 149.981764 148.148468 155.802794 C 154.957164 161.309371 161.281621 167.452167 166.703632 174.340873 C 170.702273 179.043037 174.877002 184.542301 174.561513 191.058052 C 171.612056 200.550134 163.475371 207.497343 155.008523 212.141004 C 143.790315 217.845029 131.26613 220.112013 119.270206 223.614869 C 114.082977 225.289512 108.638955 225.896479 103.246292 226.481507 C 97.134607 226.810585 90.993574 228.068396 84.889226 226.986093 C 88.799824 224.141394 93.539498 222.883584 97.838955 220.777482 C 110.179716 215.446413 121.801456 208.608897 133.834065 202.619671 C 138.93325 200.15524 143.922381 197.010714 146.835153 191.986785 C 146.681076 190.882544 146.527 189.785616 146.380261 188.681376 C 142.953902 185.215084 138.727815 182.736027 134.369663 180.637239 C 129.285152 184.842128 123.422923 188.037845 118.734608 192.732695 C 105.887596 202.297906 91.675911 209.800892 77.985149 218.07904 C 59.554714 228.434038 42.122104 240.507557 23.346831 250.255588 C 22.253625 250.643169 21.13107 250.950309 19.986505 251.169694 C 27.191397 243.315692 35.592212 236.624432 42.694387 228.660737 C 52.936778 217.92547 63.186507 207.190204 73.876453 196.893708 C 85.160693 186.02681 96.136781 174.838147 106.599281 163.166835 C 102.18977 159.086264 96.488954 155.327458 95.146291 149.067657 C 93.869661 144.336242 94.625367 138.749223 98.081074 135.092797 Z M 98.081074 135.092797 "
                      transform="matrix(0.532407,0,0,0.534162,376.792631,215.02211)"/>
            </g>
            <g clip-rule="nonzero" clip-path="url(#ceddea1c0c)">
                <path style=" stroke:none;fill-rule:nonzero;fill:#000000;fill-opacity:1;"
                      d="M 429.011719 287.183594 C 431.277344 285.257812 434.625 285.445312 437.261719 286.40625 C 439.910156 287.539062 442.699219 288.410156 445.117188 290.015625 C 448.871094 292.429688 452.457031 295.136719 455.667969 298.246094 C 459.292969 301.1875 462.660156 304.46875 465.546875 308.148438 C 467.675781 310.660156 469.898438 313.597656 469.730469 317.078125 C 468.160156 322.148438 463.828125 325.859375 459.320312 328.339844 C 453.347656 331.386719 446.679688 332.597656 440.292969 334.46875 C 437.53125 335.363281 434.632812 335.6875 431.761719 336 C 428.507812 336.175781 425.238281 336.847656 421.988281 336.269531 C 424.070312 334.75 426.59375 334.078125 428.882812 332.953125 C 435.453125 330.105469 441.640625 326.453125 448.046875 323.253906 C 450.761719 321.9375 453.417969 320.257812 454.96875 317.574219 C 454.886719 316.984375 454.804688 316.398438 454.726562 315.808594 C 452.902344 313.957031 450.652344 312.632812 448.332031 311.511719 C 445.625 313.757812 442.503906 315.464844 440.007812 317.972656 C 433.167969 323.082031 425.601562 327.089844 418.3125 331.511719 C 408.5 337.042969 399.21875 343.492188 389.222656 348.699219 C 388.640625 348.90625 388.042969 349.070312 387.433594 349.1875 C 391.269531 344.992188 395.742188 341.417969 399.523438 337.164062 C 404.976562 331.429688 410.433594 325.695312 416.125 320.195312 C 422.132812 314.390625 427.976562 308.414062 433.546875 302.179688 C 431.199219 300 428.164062 297.992188 427.449219 294.648438 C 426.769531 292.121094 427.171875 289.136719 429.011719 287.183594 Z M 429.011719 287.183594 "/>
            </g>
            <g clip-rule="nonzero" clip-path="url(#43c111f2ff)">
                <path style="fill:none;stroke-width:0.1;stroke-linecap:butt;stroke-linejoin:miter;stroke:#000000;stroke-opacity:1;stroke-miterlimit:10;"
                      d="M 181.263678 52.745313 C 199.706015 44.560444 220.106829 50.179422 237.553606 58.770286 C 257.024143 68.936413 276.902696 83.747128 284.899816 106.970069 C 288.474038 116.454124 286.123865 127.52968 279.970979 134.951277 C 275.123745 139.547146 268.23643 138.264201 262.426279 137.614608 C 249.255513 134.480323 241.193111 121.439748 230.943742 112.913843 C 222.081628 104.22554 212.631971 94.822685 200.619971 92.419191 C 189.897303 90.437933 180.578211 98.330485 173.707217 106.515354 C 163.376244 120.692716 156.847984 137.728287 151.75594 154.926255 C 148.442848 169.931848 141.408647 184.255368 142.257321 200.089192 C 141.245441 185.489594 137.508011 171.263513 137.148957 156.582716 C 136.46349 137.663327 138.634136 118.630259 142.910147 100.327983 C 150.74406 80.726522 162.853983 61.303698 181.263678 52.745313 Z M 181.263678 52.745313 "
                      transform="matrix(0.239344,0,0,0.240535,422.83047,244.441796)"/>
            </g>
            <path style=" stroke:none;fill-rule:nonzero;fill:#000000;fill-opacity:1;"
                  d="M 466.214844 257.128906 C 470.628906 255.160156 475.511719 256.511719 479.6875 258.578125 C 484.347656 261.023438 489.105469 264.585938 491.019531 270.171875 C 491.875 272.453125 491.3125 275.117188 489.839844 276.902344 C 488.679688 278.007812 487.03125 277.699219 485.640625 277.542969 C 482.488281 276.789062 480.558594 273.652344 478.105469 271.601562 C 475.984375 269.511719 473.722656 267.25 470.847656 266.671875 C 468.28125 266.195312 466.050781 268.09375 464.40625 270.0625 C 461.933594 273.472656 460.371094 277.570312 459.152344 281.707031 C 458.359375 285.316406 456.675781 288.761719 456.878906 292.570312 C 456.636719 289.058594 455.742188 285.636719 455.65625 282.105469 C 455.492188 277.554688 456.011719 272.976562 457.035156 268.574219 C 458.910156 263.859375 461.808594 259.1875 466.214844 257.128906 Z M 466.214844 257.128906 "/>
            <path style="fill:none;stroke-width:0.1;stroke-linecap:butt;stroke-linejoin:miter;stroke:#000000;stroke-opacity:1;stroke-miterlimit:10;"
                  d="M 349.447993 65.298693 C 362.798286 63.577273 376.850367 69.391128 385.810404 80.580363 C 391.881687 88.895151 395.96185 99.386074 395.896567 110.201793 C 394.72148 123.372286 388.764442 136.380382 378.825165 143.948137 C 367.106938 153.188594 351.080058 155.121133 337.892971 148.706404 C 318.291869 140.440336 306.883733 112.377929 316.953575 91.201205 C 322.616841 76.780246 335.689683 67.40987 349.447993 65.298693 Z M 349.447993 65.298693 "
                  transform="matrix(0.239344,0,0,0.240535,422.83047,244.441796)"/>
            <path style=" stroke:none;fill-rule:nonzero;fill:#000000;fill-opacity:1;"
                  d="M 506.46875 260.148438 C 509.664062 259.734375 513.027344 261.132812 515.171875 263.824219 C 516.625 265.824219 517.601562 268.347656 517.585938 270.949219 C 517.304688 274.117188 515.878906 277.246094 513.5 279.066406 C 510.695312 281.289062 506.859375 281.753906 503.703125 280.210938 C 499.011719 278.222656 496.28125 271.472656 498.691406 266.378906 C 500.046875 262.910156 503.175781 260.65625 506.46875 260.148438 Z M 506.46875 260.148438 "/>
            <g clip-rule="nonzero" clip-path="url(#10b285edfa)">
                <path style="fill:none;stroke-width:0.1;stroke-linecap:butt;stroke-linejoin:miter;stroke:#000000;stroke-opacity:1;stroke-miterlimit:10;"
                      d="M 488.467303 141.836961 C 489.267015 141.788241 490.050406 141.755762 490.866438 141.772001 C 490.523705 149.583354 492.367938 157.394707 491.192851 165.173581 C 489.348618 178.538952 484.501384 191.108572 479.262455 203.207237 C 467.723754 231.805558 445.935685 255.402016 419.51255 266.510052 C 407.386306 271.268319 392.991491 270.911043 382.056654 262.791133 C 364.381389 249.945436 350.476194 230.376454 344.388591 207.786866 C 340.553238 195.590762 340.406352 180.926205 347.032536 169.866888 C 350.345628 165.027422 354.817487 159.619563 360.790845 159.976839 C 366.960052 160.610192 372.492753 164.735106 376.213861 170.110486 C 385.010692 182.939943 386.838605 199.601997 394.084975 213.292165 C 400.139936 222.126626 409.932327 232.617549 420.76924 227.453287 C 433.825761 221.314635 444.80956 210.872432 455.417983 200.641346 C 468.833559 187.811889 478.168971 170.678879 485.627509 153.058676 C 487.129009 149.518395 488.173531 145.734517 488.467303 141.836961 Z M 488.467303 141.836961 "
                      transform="matrix(0.239344,0,0,0.240535,422.83047,244.441796)"/>
                <path style=" stroke:none;fill-rule:nonzero;fill:#000000;fill-opacity:1;"
                      d="M 539.742188 278.558594 C 539.933594 278.546875 540.121094 278.539062 540.316406 278.542969 C 540.234375 280.421875 540.675781 282.300781 540.394531 284.171875 C 539.953125 287.386719 538.792969 290.410156 537.539062 293.320312 C 534.777344 300.199219 529.5625 305.875 523.238281 308.546875 C 520.335938 309.691406 516.890625 309.605469 514.273438 307.652344 C 510.042969 304.5625 506.714844 299.855469 505.257812 294.421875 C 504.339844 291.488281 504.304688 287.960938 505.890625 285.300781 C 506.683594 284.136719 507.753906 282.835938 509.183594 282.921875 C 510.660156 283.074219 511.984375 284.066406 512.875 285.359375 C 514.980469 288.445312 515.417969 292.453125 517.152344 295.746094 C 518.601562 297.871094 520.945312 300.394531 523.539062 299.152344 C 526.664062 297.675781 529.292969 295.164062 531.832031 292.703125 C 535.042969 289.617188 537.277344 285.496094 539.0625 281.257812 C 539.421875 280.40625 539.671875 279.496094 539.742188 278.558594 Z M 539.742188 278.558594 "/>
            </g>
            <g clip-rule="nonzero" clip-path="url(#b57b2984af)">
                <path style="fill:none;stroke-width:0.1;stroke-linecap:butt;stroke-linejoin:miter;stroke:#000000;stroke-opacity:1;stroke-miterlimit:10;"
                      d="M 162.397005 223.815567 C 170.165635 216.507649 181.622733 217.205961 190.664374 220.85992 C 199.722335 225.147233 209.286237 228.460156 217.560807 234.566328 C 230.421481 243.725586 242.710931 254.005391 253.711051 265.7955 C 266.131066 276.968495 277.653446 289.424437 287.543761 303.390681 C 294.839093 312.923455 302.460837 324.08021 301.873293 337.283183 C 296.487478 356.543609 281.652006 370.607292 266.22899 380.026387 C 245.746573 391.605378 222.913981 396.201247 201.044308 403.298048 C 191.57833 406.69217 181.655374 407.926396 171.814021 409.111903 C 160.667016 409.777736 149.471049 412.327387 138.340365 410.135012 C 145.472489 404.369876 154.106114 401.803985 161.956348 397.532912 C 184.462526 386.733433 205.663052 372.880867 227.598008 360.733482 C 236.884459 355.731618 245.991382 349.349369 251.311915 339.167002 C 251.018143 336.925907 250.740692 334.701052 250.479562 332.476197 C 244.228752 325.444355 236.525404 320.410011 228.577247 316.155179 C 219.307117 324.681084 208.61709 331.160772 200.065069 340.677306 C 176.628613 360.083889 150.711419 375.28436 125.757142 392.076333 C 92.152921 413.074419 60.360292 437.547826 26.103244 457.311686 C 24.112124 458.107437 22.072043 458.72455 19.983 459.163026 C 33.121124 443.231763 48.446216 429.671514 61.388493 413.529134 C 80.075639 391.767776 98.762785 369.990179 118.249643 349.122012 C 138.846305 327.084577 158.855424 304.39755 177.934265 280.719894 C 169.888184 272.453826 159.491929 264.83735 157.043831 252.154052 C 154.726299 242.556319 156.097234 231.220925 162.397005 223.815567 Z M 162.397005 223.815567 "
                      transform="matrix(0.239344,0,0,0.240535,422.83047,244.441796)"/>
                <path style=" stroke:none;fill-rule:nonzero;fill:#000000;fill-opacity:1;"
                      d="M 461.699219 298.277344 C 463.558594 296.519531 466.300781 296.6875 468.464844 297.566406 C 470.632812 298.597656 472.921875 299.394531 474.902344 300.863281 C 477.980469 303.066406 480.921875 305.539062 483.554688 308.375 C 486.527344 311.0625 489.285156 314.058594 491.652344 317.417969 C 493.398438 319.710938 495.222656 322.394531 495.082031 325.570312 C 493.792969 330.203125 490.242188 333.585938 486.550781 335.851562 C 481.648438 338.636719 476.183594 339.742188 470.949219 341.449219 C 468.683594 342.265625 466.308594 342.5625 463.953125 342.847656 C 461.285156 343.007812 458.605469 343.621094 455.941406 343.09375 C 457.648438 341.707031 459.714844 341.089844 461.59375 340.0625 C 466.980469 337.464844 472.054688 334.132812 477.304688 331.210938 C 479.527344 330.007812 481.707031 328.472656 482.980469 326.023438 C 482.910156 325.484375 482.84375 324.949219 482.78125 324.414062 C 481.285156 322.722656 479.441406 321.511719 477.539062 320.488281 C 475.320312 322.539062 472.761719 324.097656 470.714844 326.386719 C 465.105469 331.054688 458.902344 334.710938 452.929688 338.75 C 444.886719 343.800781 437.277344 349.6875 429.078125 354.441406 C 428.601562 354.632812 428.113281 354.78125 427.613281 354.886719 C 430.757812 351.054688 434.425781 347.792969 437.523438 343.910156 C 441.996094 338.675781 446.46875 333.4375 451.132812 328.417969 C 456.0625 323.117188 460.851562 317.660156 465.417969 311.964844 C 463.492188 309.976562 461.003906 308.144531 460.417969 305.09375 C 459.863281 302.785156 460.191406 300.058594 461.699219 298.277344 Z M 461.699219 298.277344 "/>
            </g>

        </g>
    </g>
</svg>
